<?xml version="1.0" encoding="UTF-8" standalone="no"?>
<!-- Created with Inkscape (http://www.inkscape.org/) -->

<svg
   width="300mm"
   height="128mm"
   viewBox="0 0 299.99999 128"
   version="1.1"
   id="svg1"
   xml:space="preserve"
   inkscape:version="1.3.2 (091e20e, 2023-11-25, custom)"
   sodipodi:docname="panel.svg"
   xmlns:inkscape="http://www.inkscape.org/namespaces/inkscape"
   xmlns:sodipodi="http://sodipodi.sourceforge.net/DTD/sodipodi-0.dtd"
   xmlns="http://www.w3.org/2000/svg"
   xmlns:svg="http://www.w3.org/2000/svg"><sodipodi:namedview
     id="namedview1"
     pagecolor="#ffffff"
     bordercolor="#111111"
     borderopacity="1"
     inkscape:showpageshadow="0"
     inkscape:pageopacity="0"
     inkscape:pagecheckerboard="1"
     inkscape:deskcolor="#d1d1d1"
     inkscape:document-units="mm"
     inkscape:zoom="1.4778115"
     inkscape:cx="335.96979"
     inkscape:cy="258.15201"
     inkscape:window-width="3440"
     inkscape:window-height="1369"
     inkscape:window-x="-8"
     inkscape:window-y="-8"
     inkscape:window-maximized="1"
     inkscape:current-layer="layer2"
     showguides="false"><sodipodi:guide
       position="296.9998,127.99984"
       orientation="0,-1"
       id="guide15"
       inkscape:locked="false" /></sodipodi:namedview><defs
     id="defs1" /><g
     inkscape:groupmode="layer"
     id="layer3"
     inkscape:label="Layer 3" /><g
     inkscape:groupmode="layer"
     id="layer2"
     inkscape:label="Layer 2"><rect
       style="fill:#ffffff;fill-opacity:0;stroke:#fe0000;stroke-width:0.438555;stroke-opacity:1"
       id="rect1"
       width="59.561443"
       height="121.56145"
       x="2.6254885"
       y="2.743809" /><rect
       style="fill:#ffffff;fill-opacity:0;stroke:#fe0000;stroke-width:0.355229;stroke-opacity:1"
       id="rect1-5"
       width="79.644768"
       height="59.644772"
       x="66.51944"
       y="2.4603302" /><rect
       style="fill:#fc0000;fill-opacity:0;stroke:#fe0000;stroke-width:0.353147;stroke-opacity:1"
       id="rect1-5-1"
       width="78.711227"
       height="59.646854"
       x="153.0506"
       y="2.7437131" /><rect
       style="fill:#fc0000;fill-opacity:0;stroke:#fe0000;stroke-width:0.397112;stroke-opacity:1"
       id="rect1-5-1-6"
       width="99.60289"
       height="59.60289"
       x="66.088676"
       y="65.265701" /><rect
       style="fill:#fc0000;fill-opacity:0;stroke:#fe0000;stroke-width:0.307654;stroke-opacity:1"
       id="rect1-5-1-6-9"
       width="59.692345"
       height="59.692345"
       x="172.56004"
       y="64.678352" /><rect
       style="fill:#fc0000;fill-opacity:0;stroke:#ff0000;stroke-width:0.307654;stroke-opacity:1"
       id="rect1-5-1-6-9-2-7"
       width="59.692345"
       height="59.692368"
       x="236.72954"
       y="64.678352" /><rect
       style="fill:#fc0000;fill-opacity:0;stroke:#fe0000;stroke-width:0.307654;stroke-opacity:1"
       id="rect1-5-1-6-9-2-7-3"
       width="59.692345"
       height="59.692345"
       x="236.72954"
       y="2.7209671" /><path
       style="fill:#0000ff;fill-opacity:1;stroke:#0000ff;stroke-opacity:0"
       d="m 273.47209,35.355947 c -0.1949,-0.05271 -0.3999,-0.255184 -0.44877,-0.443232 -0.0222,-0.08545 -0.0279,-1.290268 -0.0126,-2.677369 l 0.0277,-2.522003 0.1536,-0.153695 c 0.15109,-0.151195 0.1662,-0.15399 0.9288,-0.17175 l 0.77522,-0.01805 v 0.336898 0.336898 h -0.60997 -0.60996 v 0.998121 0.998121 h 0.60996 0.60997 v 0.332707 0.332707 h -0.60997 -0.60996 v 0.998121 0.998121 h 0.60996 0.60997 v 0.32935 0.32935 l -0.64037,0.01722 c -0.3522,0.0095 -0.7048,-2.09e-4 -0.78356,-0.02151 z m -27.07797,-2.955632 v -2.966637 h 0.2218 0.22181 v 2.966637 2.966637 h -0.22181 -0.2218 z m 2.05169,0 v -2.966637 h 0.21787 0.21788 l 0.0654,0.318844 c 0.17316,0.843683 0.72164,3.251416 0.74628,3.276059 0.0154,0.01535 0.0279,-0.787226 0.0279,-1.783499 v -1.811404 h 0.2218 0.22181 v 2.966637 2.966637 h -0.2174 c -0.20126,0 -0.21995,-0.01338 -0.25174,-0.180216 -0.0189,-0.09912 -0.20178,-0.93887 -0.40643,-1.866114 l -0.37208,-1.685898 -0.0146,1.866114 -0.0146,1.866114 h -0.22107 -0.22107 z m 12.14381,-0.0066 v -2.973194 l 0.707,0.02334 c 1.10743,0.03655 1.09516,0.01826 1.09516,1.633072 v 1.18266 l -0.17211,0.172068 c -0.15681,0.156776 -0.21225,0.17482 -0.62382,0.20303 l -0.45172,0.03096 v 1.35063 1.35063 h -0.27726 -0.27725 z m 1.10902,-1.351997 v -0.998121 h -0.27726 -0.27725 v 0.998121 0.998121 h 0.27725 0.27726 z m 17.18986,1.60533 c 0,-2.304579 0.0127,-2.744326 0.0829,-2.880094 0.14377,-0.278022 0.28018,-0.333319 0.82224,-0.333319 0.4859,0 0.49471,0.0024 0.6808,0.188534 l 0.18854,0.188533 v 2.778104 2.778103 h -0.27726 -0.27725 v -1.330785 -1.330828 h -0.33271 -0.33271 v 1.330828 1.330828 h -0.27725 -0.27726 z m 1.21993,-1.522153 V 30.1545 h -0.33271 -0.33271 v 0.933428 c 0,0.513385 0.0166,0.950063 0.037,0.970395 0.0203,0.02033 0.17005,0.03697 0.33271,0.03697 h 0.29574 z m 3.16071,2.883461 v -1.358554 h -0.30498 -0.30498 v 1.330828 1.330828 h -0.27726 -0.27725 v -2.938912 -2.938911 h 0.66817 c 1.13367,0 1.1618,0.03854 1.16151,1.591467 -1.9e-4,0.996696 -0.0103,1.114528 -0.11009,1.27813 -0.10954,0.179658 -0.10954,0.180776 0,0.360433 0.10102,0.165685 0.1099,0.281938 0.11009,1.44173 l 2.1e-4,1.261514 h -0.33271 -0.33271 z m -0.0555,-2.938912 v -0.970395 h -0.27726 -0.27725 v 0.970395 0.970395 h 0.27725 0.27726 z m -31.16355,1.608084 v -2.633931 h -0.36044 -0.36043 v -0.296745 -0.296745 l 0.46055,-0.0325 c 0.2533,-0.01788 0.65255,-0.01798 0.88722,-2.33e-4 l 0.42667,0.03227 v 0.296978 0.296977 h -0.30498 -0.30498 v 2.633931 2.63393 h -0.22181 -0.2218 z m 5.32331,-0.31055 v -2.944481 l 0.7151,0.01943 c 1.06249,0.02887 1.11479,0.09976 1.11479,1.511222 0,0.9376 -0.0338,1.135113 -0.23014,1.34473 -0.0965,0.103066 -0.10036,0.125844 -0.0279,0.166381 0.22462,0.125707 0.25736,0.330648 0.25772,1.613408 l 3.4e-4,1.233788 h -0.30498 -0.30499 v -1.303057 -1.303103 h -0.3327 -0.33271 v 1.303103 1.303102 h -0.27726 -0.27725 z m 1.21992,-1.269808 v -1.053573 h -0.3327 -0.33271 v 1.053573 1.053572 h 0.33271 0.3327 z m 5.28173,4.174742 -0.23567,-0.02228 V 32.31395 29.378226 h 0.27726 0.27725 v 2.633931 2.63393 h 0.33271 0.33271 v -0.554511 -0.554512 h 0.24953 0.24953 v 0.859493 0.859493 l -0.51293,7.57e-4 c -0.2821,4.17e-4 -0.56283,0.009 -0.62382,0.01909 -0.061,0.01009 -0.21696,0.0083 -0.34657,-0.0039 z m 2.77055,-2.671788 c 0.0153,-2.61668 0.0197,-2.715587 0.12615,-2.833146 0.18405,-0.203289 0.30287,-0.236242 0.818,-0.226854 0.92372,0.01684 0.87388,-0.160215 0.87388,3.104371 v 2.666963 h -0.27725 -0.27726 V 33.98063 32.649802 h -0.36043 -0.36044 v 1.330828 1.330828 h -0.27925 -0.27926 z m 1.26352,-1.533326 v -0.973041 l -0.34657,0.01651 -0.34657,0.01651 -0.0152,0.956533 -0.0152,0.956532 h 0.36174 0.36174 z m 1.94079,1.305748 v -2.938911 h 0.29437 0.29438 l 0.33881,1.538769 0.33882,1.53877 0.005,-1.511044 0.005,-1.511044 h 0.30498 0.30498 v 2.911186 2.911186 h -0.30498 c -0.27833,0 -0.30527,-0.01091 -0.30831,-0.124765 -0.002,-0.06862 -0.14935,-0.773544 -0.32783,-1.566495 l -0.32451,-1.441731 -0.005,1.566496 -0.005,1.566495 h -0.30498 -0.30498 z m 6.59869,0.332707 v -2.606204 h -0.27726 -0.27725 v -0.332707 -0.332707 h 0.91494 0.91495 v 0.332707 0.332707 h -0.27726 -0.27726 v 2.606204 2.606205 h -0.36043 -0.36043 z m 9.4267,1.285384 v -1.320821 l -0.17626,-0.07932 c -0.0969,-0.04363 -0.22795,-0.149709 -0.29112,-0.235739 -0.10774,-0.146723 -0.11589,-0.242103 -0.13143,-1.53877 l -0.0166,-1.382351 h 0.33542 0.33542 v 1.334016 1.334016 l 0.23567,-0.01705 0.23566,-0.01705 0.0148,-1.344691 0.0149,-1.344691 h 0.30658 0.30658 l -0.0165,1.465912 -0.0164,1.465911 -0.16287,0.169898 c -0.0898,0.09365 -0.22042,0.169898 -0.29112,0.169898 h -0.12825 v 1.330828 1.330828 h -0.27726 -0.27725 z m -31.26798,1.174946 c -0.27443,-0.192218 -0.28374,-0.285678 -0.28374,-2.84946 0,-2.010985 0.0131,-2.414286 0.0829,-2.549169 0.15219,-0.294287 0.2673,-0.333319 0.98306,-0.333319 h 0.65307 v 0.304981 0.304981 h -0.55451 -0.55451 v 0.998121 0.998121 h 0.55451 0.55451 v 0.332707 0.332707 h -0.55451 -0.55451 v 0.970396 0.970395 h 0.55451 0.55451 v 0.304982 0.304981 h -0.65307 c -0.51403,0 -0.68057,-0.01925 -0.78218,-0.09042 z m -9.37773,-10.334395 v -2.938912 h 1.02585 1.02585 v 1.940791 1.940791 h 1.85761 1.85762 v -2.24573 -2.245772 h -2.88347 -2.88346 v -0.998121 -0.998121 h 3.28643 3.28643 l 0.59515,0.597006 0.59516,0.597005 v 2.956084 2.956084 l -0.62383,0.683197 -0.62382,0.683198 -3.25776,0.0057 -3.25776,0.0057 z m 8.65039,-0.929848 v -3.702405 l 0.54164,-0.539609 0.54164,-0.539608 h 0.51193 0.51193 l 0.007,0.540648 c 0.004,0.297357 0.01,1.014757 0.0139,1.594222 l 0.007,1.053572 h 1.99624 1.99624 l 0.0159,-0.512924 0.0159,-0.512923 h -1.80425 -1.80424 v -0.998121 -0.998121 h 2.77256 2.77256 v 2.578479 2.57848 h -0.97239 -0.97238 l 0.82975,0.662443 c 0.45636,0.364344 0.88146,0.694736 0.94466,0.734204 0.10751,0.06714 0.1149,0.12263 0.1149,0.862463 v 0.790704 h -0.71159 -0.7116 l -1.92108,-1.524907 -1.92107,-1.524907 h -0.33397 -0.33396 v 1.580358 1.580358 h -1.05357 -1.05357 z m 9.20489,0.680317 v -2.911186 h 1.05357 1.05357 v 0.665414 0.665414 h 1.23814 1.23814 l 0.52243,0.47444 c 0.28734,0.260941 0.52704,0.504233 0.53267,0.540649 0.006,0.03641 -0.23143,0.28423 -0.52679,0.550699 l -0.53701,0.484491 -1.23379,7.07e-4 -1.23379,7.07e-4 v 1.219926 1.219926 h -1.05357 -1.05357 z m 5.87782,-0.194079 v -3.105222 h -2.93891 -2.93891 v -0.998121 -0.998121 h 4.00139 4.00139 l -0.0366,1.506191 c -0.0202,0.828404 -0.0366,2.674928 -0.0366,4.103386 v 2.597196 h -1.02584 -1.02585 z m 2.93891,-0.514018 v -3.619284 l 0.52832,-0.525691 0.52832,-0.525691 0.52525,0.549272 0.52526,0.549273 v 3.595702 3.595703 h -1.05357 -1.05358 z m 6.8205,3.549585 c 0,-0.03834 -0.6709,-0.740247 -1.49088,-1.559805 -1.06301,-1.062472 -1.51257,-1.477247 -1.56649,-1.445299 -0.0416,0.02464 -0.30309,0.252448 -0.58111,0.506232 -0.27801,0.253785 -0.52131,0.461426 -0.54065,0.461426 -0.0193,0 -0.0352,-0.555989 -0.0352,-1.235531 v -1.235531 l 1.83939,-1.836952 1.83939,-1.836952 0.79866,-0.0071 0.79866,-0.0071 -0.0161,0.804724 -0.0161,0.804724 -1.18022,1.179256 c -0.64912,0.648591 -1.18021,1.204614 -1.18021,1.235607 0,0.03099 0.62382,0.679802 1.38628,1.441798 l 1.38628,1.385447 v 0.707418 0.707419 h -0.72087 c -0.54185,0 -0.72086,-0.01731 -0.72086,-0.0697 z m 2.28371,-0.449618 -0.50928,-0.519317 v -2.391869 -2.39187 h 0.96763 0.96763 l 0.0166,0.318844 0.0166,0.318845 1.85943,0.01459 1.85943,0.01459 0.52366,0.525844 0.52365,0.525843 -0.5532,0.526078 -0.55319,0.526078 -1.846,9.28e-4 -1.84599,9.28e-4 0.0161,0.457472 0.0161,0.457472 2.28243,0.01447 2.28242,0.01447 0.18515,0.18046 c 0.10184,0.09925 0.35982,0.336455 0.57331,0.527116 l 0.38816,0.346656 -0.55451,0.523623 -0.55451,0.523622 -2.77621,0.0022 -2.7762,0.0022 z m -0.50928,-6.71706 v -0.970396 h 3.2775 3.27749 l 0.52091,0.478164 c 0.2865,0.26299 0.52091,0.497531 0.52091,0.521204 0,0.02367 -0.23081,0.244671 -0.51292,0.491108 l -0.51292,0.448068 -3.28548,0.0011 -3.28549,0.0011 z"
       id="path5" /><text
       xml:space="preserve"
       style="font-size:3.175px;fill:#0000ff;fill-opacity:1;stroke:#0000ff;stroke-width:0.264999;stroke-opacity:0"
       x="255.4411"
       y="9.7066317"
       id="text5"><tspan
         sodipodi:role="line"
         style="stroke-width:0.265"
         x="255.4411"
         y="9.7066317"
         id="tspan6">Main conroller</tspan></text><text
       xml:space="preserve"
       style="font-size:3.175px;fill:#0000ff;fill-opacity:1;stroke:#0000ff;stroke-width:0.264999;stroke-opacity:0"
       x="257.22293"
       y="40.294483"
       id="text5-5"><tspan
         sodipodi:role="line"
         style="stroke-width:0.265"
         x="257.22293"
         y="40.294483"
         id="tspan6-4">Self destruct</tspan></text><text
       xml:space="preserve"
       style="font-size:3.175px;fill:#0000ff;fill-opacity:1;stroke:#0000ff;stroke-width:0.264999;stroke-opacity:0"
       x="176.41107"
       y="8.7711029"
       id="text7"><tspan
         sodipodi:role="line"
         id="tspan7"
         style="stroke-width:0.265"
         x="176.41107"
         y="8.7711029">Power management</tspan></text><text
       xml:space="preserve"
       style="font-size:3.175px;fill:#0000ff;fill-opacity:1;stroke:#0000ff;stroke-width:0.264999;stroke-opacity:0"
       x="89.622658"
       y="7.7642379"
       id="text8"><tspan
         sodipodi:role="line"
         id="tspan8"
         style="stroke-width:0.265"
         x="89.622658"
         y="7.7642379">Master mode switch</tspan></text><text
       xml:space="preserve"
       style="font-size:3.175px;fill:#0000ff;fill-opacity:1;stroke:#0000ff;stroke-width:0.264999;stroke-opacity:0"
       x="18.715513"
       y="7.4603806"
       id="text9"><tspan
         sodipodi:role="line"
         id="tspan9"
         style="stroke-width:0.265"
         x="18.715513"
         y="7.4603806">Speed manager</tspan></text><text
       xml:space="preserve"
       style="font-size:3.175px;fill:#0000ff;fill-opacity:1;stroke:#0000ff;stroke-width:0.264999;stroke-opacity:0"
       x="109.87077"
       y="69.195976"
       id="text10"><tspan
         sodipodi:role="line"
         id="tspan10"
         style="stroke-width:0.265"
         x="109.87077"
         y="69.195976">MFD</tspan></text><text
       xml:space="preserve"
       style="font-size:3.175px;fill:#0000ff;fill-opacity:1;stroke:#0000ff;stroke-width:0.264999;stroke-opacity:0"
       x="197.15652"
       y="70.677177"
       id="text11"><tspan
         sodipodi:role="line"
         id="tspan11"
         style="stroke-width:0.265"
         x="197.15652"
         y="70.677177">GEAR</tspan></text><text
       xml:space="preserve"
       style="font-size:3.175px;fill:#0000ff;fill-opacity:1;stroke:#0000ff;stroke-width:0.264999;stroke-opacity:0"
       x="20.696787"
       y="103.70663"
       id="text11-5"><tspan
         sodipodi:role="line"
         id="tspan11-9"
         style="stroke-width:0.265"
         x="20.696787"
         y="103.70663">cruise control</tspan></text><text
       xml:space="preserve"
       style="font-size:3.175px;fill:#0000ff;fill-opacity:1;stroke:#0000ff;stroke-width:0.264999;stroke-opacity:0"
       x="263.89926"
       y="70.245476"
       id="text12"><tspan
         sodipodi:role="line"
         id="tspan12"
         style="stroke-width:0.265"
         x="263.89926"
         y="70.245476">QTM</tspan></text><text
       xml:space="preserve"
       style="font-size:3.175px;fill:#0000ff;fill-opacity:1;stroke:#0000ff;stroke-width:0.264999;stroke-opacity:0"
       x="16.048206"
       y="22.677952"
       id="text13"><tspan
         sodipodi:role="line"
         id="tspan13"
         style="stroke-width:0.265"
         x="16.048206"
         y="22.677952">MAX</tspan></text><text
       xml:space="preserve"
       style="font-size:3.175px;fill:#0000ff;fill-opacity:1;stroke:#0000ff;stroke-width:0.264999;stroke-opacity:0"
       x="17.127985"
       y="59.677948"
       id="text14"><tspan
         sodipodi:role="line"
         id="tspan14"
         style="stroke-width:0.265"
         x="17.127985"
         y="59.677948">50%</tspan></text><text
       xml:space="preserve"
       style="font-size:3.175px;fill:#0000ff;fill-opacity:1;stroke:#0000ff;stroke-width:0.264999;stroke-opacity:0"
       x="19.075762"
       y="96.677948"
       id="text15"><tspan
         sodipodi:role="line"
         id="tspan15"
         style="stroke-width:0.265"
         x="19.075762"
         y="96.677948">MIN</tspan></text></g><g
     inkscape:label="Layer 1"
     inkscape:groupmode="layer"
     id="layer1"
     style="display:inline"><rect
       style="fill:#ffffff;fill-opacity:0;fill-rule:nonzero;stroke:#fe0000;stroke-width:0.293266;stroke-dasharray:none;stroke-opacity:1"
       id="rect3"
       width="17.706734"
       height="17.706734"
       x="71.229477"
       y="12.671166" /><rect
       style="fill:#ffffff;fill-opacity:0;fill-rule:nonzero;stroke:#fe0000;stroke-width:0.293266;stroke-dasharray:none;stroke-opacity:1"
       id="rect3-1"
       width="17.706734"
       height="17.706734"
       x="96.229477"
       y="12.671166" /><rect
       style="fill:#ffffff;fill-opacity:0;fill-rule:nonzero;stroke:#fe0000;stroke-width:0.293266;stroke-dasharray:none;stroke-opacity:1"
       id="rect3-3-7"
       width="17.706734"
       height="17.706734"
       x="122.22948"
       y="12.671166" /><rect
       style="fill:#ffffff;fill-opacity:0;fill-rule:nonzero;stroke:#fe0000;stroke-width:0.293266;stroke-dasharray:none;stroke-opacity:1"
       id="rect3-3"
       width="17.706734"
       height="17.706734"
       x="71.146629"
       y="36.646633" /><rect
       style="fill:#ffffff;fill-opacity:0;fill-rule:nonzero;stroke:#fe0000;stroke-width:0.293266;stroke-dasharray:none;stroke-opacity:1"
       id="rect3-1-6"
       width="17.706734"
       height="17.706734"
       x="96.146629"
       y="36.696465" /><rect
       style="fill:#ffffff;fill-opacity:0;fill-rule:nonzero;stroke:#fe0000;stroke-width:0.293266;stroke-dasharray:none;stroke-opacity:1"
       id="rect3-3-7-9-9"
       width="17.706734"
       height="17.706734"
       x="257.53159"
       y="86.033821" /><rect
       style="display:inline;fill:#ffffff;fill-opacity:0;fill-rule:nonzero;stroke:#fe0000;stroke-width:0.293266;stroke-dasharray:none;stroke-opacity:1"
       id="rect3-3-7-9-9-4"
       width="17.706734"
       height="17.706734"
       x="258.54568"
       y="41.671165" /><rect
       style="fill:#ffffff;fill-opacity:0;fill-rule:nonzero;stroke:#fe0000;stroke-width:0.293266;stroke-dasharray:none;stroke-opacity:1"
       id="rect3-3-7-9-9-0"
       width="17.706734"
       height="17.706734"
       x="22.419098"
       y="105.06649" /><rect
       style="fill:#ffffff;fill-opacity:0;fill-rule:nonzero;stroke:#fe0000;stroke-width:0.261628;stroke-dasharray:none;stroke-opacity:1"
       id="rect4"
       width="23.738371"
       height="17.738373"
       x="180.53703"
       y="41.655346" /><rect
       style="fill:#ffffff;fill-opacity:0;fill-rule:nonzero;stroke:#fe0000;stroke-width:0.261629;stroke-dasharray:none;stroke-opacity:1"
       id="rect4-38"
       width="23.738373"
       height="17.738371"
       x="206.53703"
       y="41.655346" /><rect
       style="fill:#ffffff;fill-opacity:0;fill-rule:nonzero;stroke:#fe0000;stroke-width:0.261629;stroke-dasharray:none;stroke-opacity:1"
       id="rect4-38-0"
       width="23.738373"
       height="17.738371"
       x="180.53703"
       y="11.655346" /><rect
       style="fill:#ffffff;fill-opacity:0;fill-rule:nonzero;stroke:#fe0000;stroke-width:0.261629;stroke-dasharray:none;stroke-opacity:1"
       id="rect4-3"
       width="23.738373"
       height="17.738371"
       x="154.53703"
       y="41.655346" /><rect
       style="fill:#ffffff;fill-opacity:0;fill-rule:nonzero;stroke:#fe0000;stroke-width:0.260679;stroke-dasharray:none;stroke-opacity:1"
       id="rect6"
       width="8.7393208"
       height="74.739319"
       x="26.536551"
       y="21.654873" /><rect
       style="fill:#ffffff;fill-opacity:0;fill-rule:nonzero;stroke:#fe0000;stroke-width:0.25379;stroke-dasharray:none;stroke-opacity:1"
       id="rect7-2-8-6-3-0"
       width="5.7462101"
       height="5.7462101"
       x="284.91223"
       y="5.6514282" /><rect
       style="fill:#ffffff;fill-opacity:0;fill-rule:nonzero;stroke:#fe0000;stroke-width:0.25379;stroke-dasharray:none;stroke-opacity:1"
       id="rect7-2-8-6-3-0-3"
       width="5.7462101"
       height="5.7462101"
       x="150.53311"
       y="83.651428" /><rect
       style="fill:#ffffff;fill-opacity:0;fill-rule:nonzero;stroke:#fe0000;stroke-width:0.25379;stroke-dasharray:none;stroke-opacity:1"
       id="rect7-2-8-6-3-0-3-5"
       width="5.7462101"
       height="5.7462101"
       x="150.53311"
       y="91.651428" /><rect
       style="fill:#ffffff;fill-opacity:0;fill-rule:nonzero;stroke:#fe0000;stroke-width:0.25379;stroke-dasharray:none;stroke-opacity:1"
       id="rect7-2-8-6-3-0-3-5-2"
       width="5.7462101"
       height="5.7462101"
       x="150.53311"
       y="99.651428" /><rect
       style="fill:#ffffff;fill-opacity:0;fill-rule:nonzero;stroke:#fe0000;stroke-width:0.25379;stroke-dasharray:none;stroke-opacity:1"
       id="rect7-2-8-6-3-0-3-5-2-0"
       width="5.7462101"
       height="5.7462101"
       x="158.53311"
       y="91.651428" /><rect
       style="fill:#ffffff;fill-opacity:0;fill-rule:nonzero;stroke:#fe0000;stroke-width:0.25379;stroke-dasharray:none;stroke-opacity:1"
       id="rect7-2-8-6-3-0-3-5-2-0-44"
       width="5.7462101"
       height="5.7462101"
       x="158.53311"
       y="69.651428" /><rect
       style="fill:#ffffff;fill-opacity:0;fill-rule:nonzero;stroke:#fe0000;stroke-width:0.25379;stroke-dasharray:none;stroke-opacity:1"
       id="rect7-2-8-6-3-0-3-5-2-0-4"
       width="5.7462101"
       height="5.7462101"
       x="142.53311"
       y="91.651428" /><rect
       style="fill:#ffffff;fill-opacity:0;fill-rule:nonzero;stroke:#fe0000;stroke-width:0.258928;stroke-dasharray:none;stroke-opacity:1"
       id="rect8"
       width="9.7410717"
       height="12.741073"
       x="197.53568"
       y="88.153992" /><rect
       style="fill:#ffffff;fill-opacity:0;fill-rule:nonzero;stroke:#fe0000;stroke-width:0.263663;stroke-dasharray:none;stroke-opacity:1"
       id="rect10"
       width="69.736343"
       height="49.736336"
       x="69.53804"
       y="70.656364" /><path
       style="fill:#0000f7;stroke-width:0.139924;fill-opacity:1"
       d="m 167.31826,40.866919 c -0.34554,-0.462637 -0.37931,-0.553947 -0.23892,-0.645936 0.10367,-0.06795 0.18905,-0.02519 0.33213,0.166468 0.0619,0.0829 0.12353,0.150728 0.13702,0.150728 0.013,0 0.0236,-1.340842 0.0225,-2.979649 -9.3e-4,-1.638808 -0.002,-3.023336 -9.3e-4,-3.07673 l 9.3e-4,-0.09708 h 12.34984 12.34984 l 0.0116,0.09708 0.0116,0.09708 0.005,-0.09708 0.005,-0.09708 h 8.86679 c 4.87674,0 10.44167,0.009 12.36653,0.01986 l 3.49974,0.01988 0.008,3.058323 0.008,3.058324 0.11367,-0.152191 c 0.14411,-0.193104 0.2293,-0.236019 0.33323,-0.167936 0.14252,0.09336 0.10786,0.187347 -0.23855,0.646835 -0.29757,0.394771 -0.31995,0.417142 -0.41741,0.417142 -0.0974,0 -0.11975,-0.02227 -0.41219,-0.410729 -0.1701,-0.225901 -0.31721,-0.441521 -0.32691,-0.479155 -0.0116,-0.04651 0.005,-0.0934 0.0494,-0.146411 0.097,-0.112684 0.19764,-0.077 0.35438,0.125559 l 0.12628,0.163121 0.008,-2.872046 c 0.005,-1.579626 0.005,-2.875407 0,-2.879514 -0.005,-0.0041 -5.44155,-0.01738 -12.08304,-0.02947 l -12.07541,-0.022 0.002,2.909409 0.002,2.909407 0.0807,-0.10455 c 0.13179,-0.170696 0.23728,-0.26884 0.28889,-0.26884 0.0848,0 0.20155,0.141725 0.17797,0.21603 -0.0116,0.03613 -0.16053,0.250973 -0.33123,0.477442 -0.29356,0.389425 -0.31597,0.411763 -0.41334,0.411763 -0.0974,0 -0.11991,-0.02237 -0.41742,-0.417143 -0.34459,-0.457154 -0.38069,-0.553686 -0.24121,-0.645073 0.1009,-0.06614 0.17469,-0.03462 0.30565,0.130603 0.061,0.07702 0.1218,0.152796 0.13485,0.168404 0.013,0.0156 0.024,-1.278187 0.024,-2.875101 v -2.903488 h -12.08557 -12.08289 v 2.897503 c 0,1.593627 0.006,2.897504 0.013,2.897504 0.008,0 0.0619,-0.06743 0.12236,-0.149868 0.0604,-0.08243 0.13528,-0.163405 0.16623,-0.17995 0.088,-0.04714 0.19751,-0.0037 0.23824,0.09466 0.0415,0.100214 0.0174,0.141754 -0.39725,0.683222 -0.19826,0.258934 -0.22696,0.28458 -0.32785,0.292978 -0.11018,0.0092 -0.11164,0.0076 -0.42537,-0.412306 z m 24.55373,-7.437023 c -0.33558,-0.445163 -0.37187,-0.537261 -0.25381,-0.644105 0.088,-0.07965 0.19294,-0.03181 0.3484,0.158884 l 0.1286,0.157821 v -1.629097 -1.629098 l -5.33946,-1.83e-4 c -2.93673,-9.9e-5 -5.45038,-0.0088 -5.58592,-0.01936 -0.17767,-0.01377 -0.24643,-0.03045 -0.24643,-0.05956 0,-0.03385 1.83668,-0.04038 11.36598,-0.04038 11.34606,0 11.36598,1.05e-4 11.36598,0.05975 0,0.05953 -0.0198,0.05974 -5.58592,0.05974 h -5.5859 l 9.4e-4,1.635447 9.3e-4,1.635447 0.0663,-0.08932 c 0.21008,-0.283218 0.31668,-0.343027 0.4226,-0.237119 0.10786,0.107798 0.0744,0.18768 -0.27015,0.64467 -0.29496,0.391275 -0.31737,0.413623 -0.41477,0.413623 -0.0974,0 -0.11976,-0.02237 -0.41738,-0.417141 z"
       id="path1" /></g></svg>
